<?xml version="1.0" encoding="UTF-8" standalone="no"?>
<!-- Created with Inkscape (http://www.inkscape.org/) -->

<svg
   xmlns:dc="http://purl.org/dc/elements/1.1/"
   xmlns:cc="http://creativecommons.org/ns#"
   xmlns:rdf="http://www.w3.org/1999/02/22-rdf-syntax-ns#"
   xmlns:svg="http://www.w3.org/2000/svg"
   xmlns="http://www.w3.org/2000/svg"
   xmlns:sodipodi="http://sodipodi.sourceforge.net/DTD/sodipodi-0.dtd"
   xmlns:inkscape="http://www.inkscape.org/namespaces/inkscape"
   width="210mm"
   height="297mm"
   viewBox="0 0 744.09448819 1052.3622047"
   id="svg2"
   version="1.1"
   inkscape:version="0.91 r13725"
   sodipodi:docname="new_map.svg">
  <defs
     id="defs4" />
  <sodipodi:namedview
     id="base"
     pagecolor="#ffffff"
     bordercolor="#666666"
     borderopacity="1.0"
     inkscape:pageopacity="0.0"
     inkscape:pageshadow="2"
     inkscape:zoom="1.979899"
     inkscape:cx="152.61545"
     inkscape:cy="31.058708"
     inkscape:document-units="px"
     inkscape:current-layer="layer1"
     showgrid="false"
     inkscape:window-width="1920"
     inkscape:window-height="1017"
     inkscape:window-x="1672"
     inkscape:window-y="-8"
     inkscape:window-maximized="1" />
  <metadata
     id="metadata7">
    <rdf:RDF>
      <cc:Work
         rdf:about="">
        <dc:format>image/svg+xml</dc:format>
        <dc:type
           rdf:resource="http://purl.org/dc/dcmitype/StillImage" />
        <dc:title />
      </cc:Work>
    </rdf:RDF>
  </metadata>
  <g
     inkscape:label="Capa 1"
     inkscape:groupmode="layer"
     id="layer1">
    <path
       style="fill:none;fill-rule:evenodd;stroke:#000000;stroke-width:1px;stroke-linecap:butt;stroke-linejoin:miter;stroke-opacity:1"
       d="m 29.947433,28.597981 612.509587,-0.530457 -0.65301,101.902856 61.68058,0.41841 -0.41842,869.44548 -613.162594,2e-5 -3.744743,-868.76275 -56.691095,0.41843 z"
       id="path3336"
       inkscape:connector-curvature="0"
       sodipodi:nodetypes="ccccccccc" />
    <path
       style="fill:none;fill-rule:evenodd;stroke:#000000;stroke-width:0.90345025px;stroke-linecap:butt;stroke-linejoin:miter;stroke-opacity:1"
       d="m 86.707356,131.26393 57.297494,-0.29694 0.35714,10.29079 -47.77098,0 0,69.77427 98.83652,0 -0.5824,-70.00912 -26.88884,-0.35752 -0.24124,-9.69334 36.97033,-0.11647 -0.19783,92.3111 -117.297717,0 z"
       id="path3338"
       inkscape:connector-curvature="0"
       sodipodi:nodetypes="ccccccccccccc" />
    <path
       style="fill:none;fill-rule:evenodd;stroke:#000000;stroke-width:0.87416732px;stroke-linecap:butt;stroke-linejoin:miter;stroke-opacity:1"
       d="m 205.16853,130.65398 53.06778,0.0599 0,10.11543 -44.71025,0 0,69.79641 92.50397,0 -0.54509,-70.03133 -25.16604,-0.35764 -0.22579,-9.69642 34.31311,0.24092 0.10334,91.98297 -109.50979,0.35764 z"
       id="path3338-2"
       inkscape:connector-curvature="0"
       sodipodi:nodetypes="ccccccccccccc" />
    <path
       style="fill:none;fill-rule:evenodd;stroke:#000000;stroke-width:1px;stroke-linecap:butt;stroke-linejoin:miter;stroke-opacity:1"
       d="m 641.07143,129.8622 -65,0.71429 -0.35714,-7.5 57.85714,-0.71429 -0.71429,-86.071425 -96.42857,0 1.07143,87.142855 17.14286,0 -0.17857,7.5 -28.21429,1e-5 0,-102.67858 115.53572,0.535715 z"
       id="path3359"
       inkscape:connector-curvature="0"
       sodipodi:nodetypes="ccccccccccccc" />
    <path
       style="fill:none;fill-rule:evenodd;stroke:#000000;stroke-width:1px;stroke-linecap:butt;stroke-linejoin:miter;stroke-opacity:1"
       d="m 526.07143,130.57649 -80.53571,0.17857 -0.35715,-7.32142 71.78572,-0.17858 -0.35715,-87.321429 -108.39285,0.714286 0,86.785713 13.92857,-0.17857 0,7.5 L 400,130.57649 399.46429,28.25506 525.89286,28.612203 Z"
       id="path3361"
       inkscape:connector-curvature="0"
       sodipodi:nodetypes="ccccccccccccc" />
    <path
       style="fill:none;fill-rule:evenodd;stroke:#000000;stroke-width:1px;stroke-linecap:butt;stroke-linejoin:miter;stroke-opacity:1"
       d="m 314.64286,222.71935 -0.29587,31.5765 -10.41842,-0.14793 -0.35714,-24.28572 -207.142858,0.71429 0,65.35714 208.384958,0 0,-27.70234 9.34391,0 0,27.77919 0,7.95496 -226.526707,-0.37881 0,-80.8122 z"
       id="path3363"
       inkscape:connector-curvature="0"
       sodipodi:nodetypes="cccccccccccccc" />
    <path
       style="fill:none;fill-rule:evenodd;stroke:#000000;stroke-width:1px;stroke-linecap:butt;stroke-linejoin:miter;stroke-opacity:1"
       d="m 87.76072,543.95962 129.92715,-0.71429 -0.50508,86.87312 -15.15228,0 0,-75.76145 -97.9848,0 0,214.15234 97.9848,0.50508 0.50507,-116.67262 14.70849,0.35714 -0.29587,128.43731 -127.78429,-0.50507 z"
       id="path3365"
       inkscape:connector-curvature="0"
       sodipodi:nodetypes="ccccccccccccc" />
    <path
       style="fill:none;fill-rule:evenodd;stroke:#000000;stroke-width:1.43012977px;stroke-linecap:butt;stroke-linejoin:miter;stroke-opacity:1"
       d="m 217.33675,542.19875 -0.3477,-169.56328 -15.64676,0 -0.0495,169.64459 z"
       id="path3367"
       inkscape:connector-curvature="0"
       sodipodi:nodetypes="ccccc" />
    <path
       style="fill:none;fill-rule:evenodd;stroke:#000000;stroke-width:1px;stroke-linecap:butt;stroke-linejoin:miter;stroke-opacity:1"
       d="m 399.51533,224.03712 242.43661,0 0,42.93148 -12.6269,0 0,-31.31473 -216.17265,0 0,94.95434 216.17265,-0.25254 0,-44.69925 12.87944,0 0.25254,58.33631 -242.18407,-0.50508 z"
       id="path3371"
       inkscape:connector-curvature="0"
       sodipodi:nodetypes="ccccccccccccc" />
    <path
       style="fill:none;fill-rule:evenodd;stroke:#000000;stroke-width:1px;stroke-linecap:butt;stroke-linejoin:miter;stroke-opacity:1"
       d="m 400.02092,344.37102 242.4366,0 0,42.93148 -12.6269,0 0,-31.31473 -216.17264,0 0,94.95434 216.17264,-0.25254 0,-44.69925 12.87944,0 0.25254,58.33631 -242.18406,-0.50508 z"
       id="path3371-3"
       inkscape:connector-curvature="0"
       sodipodi:nodetypes="ccccccccccccc" />
    <path
       style="fill:none;fill-rule:evenodd;stroke:#000000;stroke-width:1px;stroke-linecap:butt;stroke-linejoin:miter;stroke-opacity:1"
       d="m 400.77853,464.66583 242.4366,0 0,42.93148 -12.6269,0 0,-31.31473 -216.17264,0 0,94.95434 216.17264,-0.25254 0,-44.69925 12.87944,0 0.25254,58.33631 -242.18406,-0.50508 z"
       id="path3371-3-1"
       inkscape:connector-curvature="0"
       sodipodi:nodetypes="ccccccccccccc" />
    <path
       style="fill:none;fill-rule:evenodd;stroke:#000000;stroke-width:1px;stroke-linecap:butt;stroke-linejoin:miter;stroke-opacity:1"
       d="m 216.78571,780.93363 0,29.28572 -10.71428,0 0,-18.57143 -103.21429,0 0,68.21428 104.64286,0 0,-25 9.64285,0 0.35715,37.85715 -128.214286,0 0,-91.42857 z"
       id="path3403"
       inkscape:connector-curvature="0"
       sodipodi:nodetypes="ccccccccccccc" />
    <path
       style="fill:none;fill-rule:evenodd;stroke:#000000;stroke-width:1.17860413px;stroke-linecap:butt;stroke-linejoin:miter;stroke-opacity:1"
       d="m 217.23049,872.27385 0,40.73794 -10.69931,0 0,-25.83381 -103.07008,0 0,94.88957 104.49665,0 0,-34.77629 9.62938,0 0.35665,52.66124 -128.035145,0 0,-127.18183 z"
       id="path3403-1"
       inkscape:connector-curvature="0"
       sodipodi:nodetypes="ccccccccccccc" />
    <path
       style="fill:none;fill-rule:evenodd;stroke:#000000;stroke-width:1px;stroke-linecap:butt;stroke-linejoin:miter;stroke-opacity:1"
       d="m 274.82233,779.2092 0,220.71425 232.14286,0 0,-83.5714 -24.28572,0 0,66.42858 -183.57143,0 0,-186.42858 181.42858,0 0,72.14286 25.71428,0 0,-88.57143 z"
       id="path3424"
       inkscape:connector-curvature="0" />
    <path
       style="fill:none;fill-rule:evenodd;stroke:#000000;stroke-width:0.93735927px;stroke-linecap:butt;stroke-linejoin:miter;stroke-opacity:1"
       d="m 506.13228,780.18797 113.56334,0 0,110.74604 -20.0775,0 0,-91.4548 -69.01639,0 0,69.3056 -25.09686,0 z"
       id="path3426"
       inkscape:connector-curvature="0" />
    <path
       style="fill:none;fill-rule:evenodd;stroke:#000000;stroke-width:0.93610311px;stroke-linecap:butt;stroke-linejoin:miter;stroke-opacity:1"
       d="m 507.07301,916.35923 23.26316,0 0,61.82486 67.78806,0 0,-38.10138 23.01061,0 0,58.94929 -113.18738,0 z"
       id="path3428"
       inkscape:connector-curvature="0"
       sodipodi:nodetypes="ccccccccc" />
    <path
       style="fill:none;fill-rule:evenodd;stroke:#000000;stroke-width:1px;stroke-linecap:butt;stroke-linejoin:miter;stroke-opacity:1"
       d="m 401.4719,584.84426 -0.75761,62.51794 18.57171,0 -2.9e-4,-47.85714 97.85715,0 0,118.57143 -97.48206,0.25254 -0.3748,-43.36222 -18.57171,0.25254 0,57.85714 140,0 0.25254,-148.78063 z"
       id="path3430"
       inkscape:connector-curvature="0"
       sodipodi:nodetypes="ccccccccccccc" />
  </g>
</svg>
